<svg width="40" height="37" viewBox="0 0 40 37" fill="none" xmlns="http://www.w3.org/2000/svg">
<path d="M32.2277 26.5363C31.9844 26.7806 31.798 27.0755 31.6817 27.4C31.5654 27.7245 31.5221 28.0707 31.555 28.4139C31.7197 30.0022 32.032 31.5717 32.4879 33.1021C29.2179 32.3449 27.2208 31.4682 26.3136 31.0088C25.7991 30.7482 25.2065 30.6864 24.6493 30.8353C23.052 31.2612 21.4057 31.4755 19.7526 31.4729C10.3856 31.4729 3.34405 24.8931 3.34405 17.4085C3.34405 9.92623 10.3856 3.34407 19.7526 3.34407C29.1195 3.34407 36.1611 9.92623 36.1611 17.4085C36.1611 20.8496 34.7148 24.0422 32.2277 26.5363ZM33.3833 35.6899C33.9387 35.8 34.4959 35.9008 35.0547 35.9923C35.5235 36.0673 35.8798 35.5797 35.6946 35.1437C35.4865 34.6529 35.2957 34.1549 35.1226 33.6506L35.1156 33.6271C34.5343 31.9394 34.0608 29.9985 33.8873 28.1912C36.7635 25.308 38.5051 21.5341 38.5051 17.4085C38.5051 8.34632 30.1087 1 19.7526 1C9.39644 1 0.999977 8.34632 0.999977 17.4085C0.999977 26.4707 9.39644 33.817 19.7526 33.817C21.6099 33.8195 23.4595 33.5784 25.2541 33.0997C26.473 33.7162 29.096 34.839 33.3833 35.6899Z" fill="#D6D5D5" stroke="#D6D5D5"/>
</svg>
