<svg width="40" height="40" viewBox="0 0 40 40" fill="none" xmlns="http://www.w3.org/2000/svg">
<path d="M15 5C12.7898 5 10.6702 5.87797 9.10742 7.44078C7.54462 9.00358 6.66665 11.1232 6.66665 13.3333C6.66665 15.5435 7.54462 17.6631 9.10742 19.2259C10.6702 20.7887 12.7898 21.6667 15 21.6667C17.2101 21.6667 19.3297 20.7887 20.8925 19.2259C22.4553 17.6631 23.3333 15.5435 23.3333 13.3333C23.3333 11.1232 22.4553 9.00358 20.8925 7.44078C19.3297 5.87797 17.2101 5 15 5ZM9.99998 13.3333C9.99998 12.0073 10.5268 10.7355 11.4644 9.7978C12.4021 8.86012 13.6739 8.33333 15 8.33333C16.3261 8.33333 17.5978 8.86012 18.5355 9.7978C19.4732 10.7355 20 12.0073 20 13.3333C20 14.6594 19.4732 15.9312 18.5355 16.8689C17.5978 17.8065 16.3261 18.3333 15 18.3333C13.6739 18.3333 12.4021 17.8065 11.4644 16.8689C10.5268 15.9312 9.99998 14.6594 9.99998 13.3333ZM28.18 13.6967C27.7113 13.4578 27.1927 13.3333 26.6666 13.3333V10C27.7192 10.0001 28.7567 10.2494 29.6944 10.7275C30.6321 11.2056 31.4433 11.8989 32.0615 12.7507C32.6798 13.6025 33.0876 14.5886 33.2515 15.6283C33.4154 16.668 33.3309 17.7317 33.0047 18.7325C32.6786 19.7332 32.1201 20.6425 31.375 21.3859C30.6299 22.1294 29.7194 22.6858 28.718 23.0097C27.7165 23.3337 26.6526 23.4159 25.6133 23.2497C24.574 23.0834 23.5888 22.6735 22.7383 22.0533L24.7016 19.36C25.0734 19.6305 25.497 19.8212 25.946 19.9201C26.3949 20.0191 26.8595 20.024 27.3105 19.9348C27.7614 19.8455 28.1891 19.6639 28.5665 19.4014C28.9439 19.1389 29.2629 18.8011 29.5035 18.4094C29.7441 18.0177 29.9011 17.5804 29.9646 17.1251C30.028 16.6697 29.9966 16.2062 29.8723 15.7636C29.748 15.321 29.5335 14.9089 29.2423 14.5532C28.951 14.1975 28.5893 13.9059 28.18 13.6967ZM33.33 35C33.3295 33.2329 32.6274 31.5383 31.3778 30.2888C30.1283 29.0393 28.4337 28.3371 26.6666 28.3367V25C29.3187 25.0004 31.862 26.0542 33.7372 27.9294C35.6125 29.8047 36.6662 32.348 36.6666 35H33.33ZM26.6666 35H23.3333C23.3333 32.7899 22.4553 30.6702 20.8925 29.1074C19.3297 27.5446 17.2101 26.6667 15 26.6667C12.7898 26.6667 10.6702 27.5446 9.10742 29.1074C7.54462 30.6702 6.66665 32.7899 6.66665 35H3.33331C3.33331 31.9058 4.56248 28.9383 6.7504 26.7504C8.93832 24.5625 11.9058 23.3333 15 23.3333C18.0942 23.3333 21.0616 24.5625 23.2496 26.7504C25.4375 28.9383 26.6666 31.9058 26.6666 35Z" fill="#D6D5D5"/>
</svg>
