<svg width="40" height="40" viewBox="0 0 40 40" fill="none" xmlns="http://www.w3.org/2000/svg">
<path d="M31.6666 36.6667H8.33331C7.89129 36.6667 7.46736 36.4911 7.1548 36.1786C6.84224 35.866 6.66665 35.4421 6.66665 35.0001V21.6667H3.33331L18.82 6.17839C18.9748 6.02343 19.1586 5.90049 19.3609 5.81662C19.5632 5.73275 19.7801 5.68958 19.9991 5.68958C20.2182 5.68958 20.4351 5.73275 20.6374 5.81662C20.8397 5.90049 21.0235 6.02343 21.1783 6.17839L36.6666 21.6667H33.3333V35.0001C33.3333 35.4421 33.1577 35.866 32.8452 36.1786C32.5326 36.4911 32.1087 36.6667 31.6666 36.6667ZM16.6666 25.0001H23.3333V33.3334H30V19.7134L20 9.71339L9.99998 19.7134V33.3334H16.6666V25.0001Z" fill="white"/>
</svg>
