<svg width="22" height="16" viewBox="0 0 22 16" fill="none" xmlns="http://www.w3.org/2000/svg">
    <path d="M19.3999 15.5L4.3999 0.5M9.1999 6.44157C8.82648 6.85326 8.5999 7.39403 8.5999 7.98631C8.5999 9.27609 9.67442 10.3217 10.9999 10.3217C11.611 10.3217 12.1688 10.0994 12.5926 9.73338M19.4387 10.3217C20.2649 9.08482 20.5999 8.07613 20.5999 8.07613C20.5999 8.07613 18.4153 1.1 10.9999 1.1C10.5836 1.1 10.1838 1.12199 9.7999 1.16349M16.3999 13.3494C15.0225 14.2281 13.2492 14.8495 10.9999 14.8127C3.67683 14.693 1.3999 8.07613 1.3999 8.07613C1.3999 8.07613 2.45776 4.69808 5.5999 2.64332" stroke="#434343" stroke-linecap="round"/>
</svg>
