<svg width="414" height="896" viewBox="0 0 414 896" fill="none" xmlns="http://www.w3.org/2000/svg">
<g clip-path="url(#clip0_247_36)">
<path fill-rule="evenodd" clip-rule="evenodd" d="M90.0623 911.814C77.2115 906.053 78.9873 898.784 82.7744 889.609C86.5619 880.434 96.5711 873.669 104.382 876.758C109.236 878.678 110.5 882.156 111.063 888.077C111.626 893.997 112.497 897.323 111.063 900.795C107.276 909.97 102.911 917.575 90.0623 911.814Z" fill="#592BAE"/>
<path opacity="0.36" fill-rule="evenodd" clip-rule="evenodd" d="M337.062 70.8143C324.211 65.0529 325.987 57.7839 329.774 48.6091C333.562 39.4343 343.571 32.6688 351.382 35.7577C356.236 37.6779 357.5 41.1559 358.063 47.0766C358.626 52.9972 359.497 56.323 358.063 59.7951C354.276 68.9698 349.911 76.5752 337.062 70.8143Z" fill="#592BAE"/>
<path opacity="0.77" d="M338.995 618.995C343.749 614.241 342.144 604.928 335.409 598.194C328.675 591.459 319.362 589.854 314.608 594.608C309.854 599.362 311.459 608.675 318.194 615.41C324.928 622.144 334.241 623.749 338.995 618.995Z" fill="#592BAE"/>
<path opacity="0.66" d="M156.542 187.955C162.365 191.316 170.945 187.355 175.707 179.107C180.469 170.86 179.609 161.448 173.787 158.087C167.964 154.725 159.384 158.686 154.622 166.934C149.86 175.182 150.72 184.593 156.542 187.955Z" fill="#592BAE"/>
<path opacity="0.67" fill-rule="evenodd" clip-rule="evenodd" d="M63.6101 112.961C108.807 92.6981 102.562 67.1323 89.2424 34.8641C75.9231 2.59579 40.72 -21.199 13.2485 -10.335C-3.82627 -3.58171 -8.26953 8.65081 -10.2505 29.4741C-12.2315 50.2973 -15.294 61.9943 -10.2505 74.2058C3.06873 106.474 18.4215 133.223 63.6101 112.961Z" fill="#592BAE"/>
<path opacity="0.35" fill-rule="evenodd" clip-rule="evenodd" d="M76.3684 669.8C89.3466 679.204 95.4787 673.328 102.338 664.388C109.198 655.449 110.148 641.74 102.665 635.79C98.0142 632.091 93.8771 632.819 87.7384 635.623C81.5996 638.426 77.8357 639.454 75.2402 642.838C68.3805 651.778 63.3922 660.398 76.3684 669.8Z" fill="#592BAE"/>
<path opacity="0.71" fill-rule="evenodd" clip-rule="evenodd" d="M416.097 319.036C433.853 310.504 431.399 299.74 426.167 286.153C420.934 272.567 407.104 262.548 396.312 267.122C389.604 269.966 387.858 275.116 387.08 283.884C386.302 292.652 385.099 297.577 387.08 302.718C392.313 316.305 398.344 327.568 416.097 319.036Z" fill="#592BAE"/>
<path opacity="0.55" fill-rule="evenodd" clip-rule="evenodd" d="M366.81 849.78C323.63 872.176 329.597 900.433 342.322 936.098C355.047 971.763 388.678 998.062 414.923 986.054C431.236 978.59 435.481 965.07 437.373 942.055C439.266 919.04 442.192 906.112 437.373 892.615C424.649 856.95 409.981 827.385 366.81 849.78Z" fill="#592BAE"/>
</g>
<defs>
<clipPath id="clip0_247_36">
<rect width="414" height="896" rx="48" fill="white"/>
</clipPath>
</defs>
</svg>
