<svg width="113" height="103" viewBox="0 0 113 103" fill="none" xmlns="http://www.w3.org/2000/svg">
    <path fill-rule="evenodd" clip-rule="evenodd" d="M21.0074 82.7489C21.0074 93.92 30.0638 102.976 41.2349 102.976C49.3939 102.976 52.2662 97.5177 59.6235 97.5177C66.9807 97.5177 69.8531 102.976 78.0121 102.976C89.1832 102.976 98.2395 93.92 98.2395 82.7489C98.2395 73.4829 92.0095 65.6723 83.5084 63.2772C83.5213 63.0266 83.5287 62.7743 83.5287 62.5214C83.5287 51.3503 74.4392 42.2939 59.6235 42.2939C44.8078 42.2939 35.7183 51.3503 35.7183 62.5214C35.7183 62.7743 35.7256 63.0266 35.7385 63.2772C27.2374 65.6723 21.0074 73.4829 21.0074 82.7489Z" fill="white"/>
    <path fill-rule="evenodd" clip-rule="evenodd" d="M48.4877 33.0893C60.3608 27.7663 58.7201 21.0503 55.2212 12.5736C51.7223 4.09693 42.4747 -2.15382 35.2581 0.70009C30.7726 2.47413 29.6054 5.68754 29.085 11.1577C28.5646 16.6278 27.7601 19.7006 29.085 22.9085C32.5839 31.3852 36.617 38.4119 48.4877 33.0893Z" fill="white"/>
    <path fill-rule="evenodd" clip-rule="evenodd" d="M72.5976 33.0893C60.7245 27.7663 62.3652 21.0503 65.8641 12.5736C69.3635 4.09693 78.6111 -2.15382 85.8273 0.70009C90.3127 2.47413 91.4799 5.68754 92.0003 11.1577C92.5207 16.6278 93.3252 19.7006 92.0003 22.9085C88.5014 31.3852 84.4688 38.4119 72.5976 33.0893Z" fill="white"/>
    <path d="M31.3541 56.3146C35.7465 51.9223 34.2633 43.3178 28.0414 37.0958C21.8195 30.8739 13.2149 29.3908 8.8226 33.7831C4.43026 38.1755 5.91342 46.78 12.1353 53.0019C18.3572 59.2238 26.9618 60.707 31.3541 56.3146Z" fill="white"/>
    <path fill-rule="evenodd" clip-rule="evenodd" d="M87.5203 56.1016C91.6067 60.4873 100.128 59.5076 106.556 53.9134C112.984 48.3186 114.882 40.2281 110.797 35.8424C106.712 31.4567 98.1894 32.4364 91.7616 38.0311C85.3353 43.6249 83.4357 51.7155 87.5203 56.1016Z" fill="white"/>
</svg>
