<svg width="35" height="32" viewBox="0 0 35 32" fill="none" xmlns="http://www.w3.org/2000/svg">
<path d="M16.6455 4.59669L17.4545 5.71053L18.2636 4.59669C19.8517 2.41037 22.3873 1 25.2044 1C29.9784 1 33.9091 5.01389 33.9091 10.0494C33.9091 12.0833 33.5941 13.9598 33.0474 15.7003L33.0454 15.7067C31.7347 19.9788 29.0489 23.4218 26.1496 25.9883C23.2449 28.5595 20.1796 30.2028 18.206 30.8945L18.206 30.8944L18.1951 30.8984C18.0418 30.9541 17.7734 31 17.4545 31C17.1357 31 16.8673 30.9541 16.714 30.8984L16.714 30.8983L16.7031 30.8945C14.7295 30.2028 11.6642 28.5595 8.75954 25.9883C5.86015 23.4218 3.17436 19.9788 1.86365 15.7067L1.86367 15.7067L1.86168 15.7003C1.31496 13.9598 1 12.0833 1 10.0494C1 5.01389 4.93069 1 9.70473 1C12.5218 1 15.0574 2.41037 16.6455 4.59669Z" stroke="white" stroke-width="2"/>
</svg>
